<svg xmlns="http://www.w3.org/2000/svg" xmlns:xlink="http://www.w3.org/1999/xlink" width="1920" height="1080" viewBox="0 0 1920 1080"><defs><style>.cls-1,.cls-10,.cls-11,.cls-12,.cls-13,.cls-14,.cls-15,.cls-16,.cls-17,.cls-18,.cls-19,.cls-20,.cls-21,.cls-22,.cls-23,.cls-24,.cls-25,.cls-26,.cls-27,.cls-28,.cls-29,.cls-30,.cls-31,.cls-32,.cls-33,.cls-34,.cls-35,.cls-36,.cls-37,.cls-38,.cls-39,.cls-40,.cls-41,.cls-42,.cls-43,.cls-44,.cls-45,.cls-46,.cls-47,.cls-48,.cls-49,.cls-50,.cls-51,.cls-52,.cls-53,.cls-54,.cls-55,.cls-56,.cls-57,.cls-58,.cls-59,.cls-60,.cls-61,.cls-62,.cls-63,.cls-64,.cls-65,.cls-66,.cls-67,.cls-68,.cls-69,.cls-7,.cls-8,.cls-9{fill:none;}.cls-2{isolation:isolate;}.cls-3{fill:#fafbfc;}.cls-4{fill:url(#linear-gradient);}.cls-5{clip-path:url(#clip-path);}.cls-6{mix-blend-mode:color-dodge;}.cls-10,.cls-11,.cls-12,.cls-13,.cls-14,.cls-15,.cls-16,.cls-17,.cls-18,.cls-19,.cls-20,.cls-21,.cls-22,.cls-23,.cls-24,.cls-25,.cls-26,.cls-27,.cls-28,.cls-29,.cls-30,.cls-31,.cls-32,.cls-33,.cls-34,.cls-35,.cls-36,.cls-37,.cls-38,.cls-39,.cls-40,.cls-41,.cls-42,.cls-43,.cls-44,.cls-45,.cls-46,.cls-47,.cls-48,.cls-49,.cls-50,.cls-51,.cls-52,.cls-53,.cls-54,.cls-55,.cls-56,.cls-57,.cls-58,.cls-59,.cls-60,.cls-61,.cls-62,.cls-63,.cls-64,.cls-65,.cls-66,.cls-67,.cls-68,.cls-69,.cls-7,.cls-8,.cls-9{stroke-miterlimit:10;stroke-width:0.25px;}.cls-7{stroke:url(#linear-gradient-2);}.cls-8{stroke:url(#linear-gradient-3);}.cls-9{stroke:url(#linear-gradient-4);}.cls-10{stroke:url(#linear-gradient-5);}.cls-11{stroke:url(#linear-gradient-6);}.cls-12{stroke:url(#linear-gradient-7);}.cls-13{stroke:url(#linear-gradient-8);}.cls-14{stroke:url(#linear-gradient-9);}.cls-15{stroke:url(#linear-gradient-10);}.cls-16{stroke:url(#linear-gradient-11);}.cls-17{stroke:url(#linear-gradient-12);}.cls-18{stroke:url(#linear-gradient-13);}.cls-19{stroke:url(#linear-gradient-14);}.cls-20{stroke:url(#linear-gradient-15);}.cls-21{stroke:url(#linear-gradient-16);}.cls-22{stroke:url(#linear-gradient-17);}.cls-23{stroke:url(#linear-gradient-18);}.cls-24{stroke:url(#linear-gradient-19);}.cls-25{stroke:url(#linear-gradient-20);}.cls-26{stroke:url(#linear-gradient-21);}.cls-27{stroke:url(#linear-gradient-22);}.cls-28{stroke:url(#linear-gradient-23);}.cls-29{stroke:url(#linear-gradient-24);}.cls-30{stroke:url(#linear-gradient-25);}.cls-31{stroke:url(#linear-gradient-26);}.cls-32{stroke:url(#linear-gradient-27);}.cls-33{stroke:url(#linear-gradient-28);}.cls-34{stroke:url(#linear-gradient-29);}.cls-35{stroke:url(#linear-gradient-30);}.cls-36{stroke:url(#linear-gradient-31);}.cls-37{stroke:url(#linear-gradient-32);}.cls-38{stroke:url(#linear-gradient-33);}.cls-39{stroke:url(#linear-gradient-34);}.cls-40{stroke:url(#linear-gradient-35);}.cls-41{stroke:url(#linear-gradient-36);}.cls-42{stroke:url(#linear-gradient-37);}.cls-43{stroke:url(#linear-gradient-38);}.cls-44{stroke:url(#linear-gradient-39);}.cls-45{stroke:url(#linear-gradient-40);}.cls-46{stroke:url(#linear-gradient-41);}.cls-47{stroke:url(#linear-gradient-42);}.cls-48{stroke:url(#linear-gradient-43);}.cls-49{stroke:url(#linear-gradient-44);}.cls-50{stroke:url(#linear-gradient-45);}.cls-51{stroke:url(#linear-gradient-46);}.cls-52{stroke:url(#linear-gradient-47);}.cls-53{stroke:url(#linear-gradient-48);}.cls-54{stroke:url(#linear-gradient-49);}.cls-55{stroke:url(#linear-gradient-50);}.cls-56{stroke:url(#linear-gradient-51);}.cls-57{stroke:url(#linear-gradient-52);}.cls-58{stroke:url(#linear-gradient-53);}.cls-59{stroke:url(#linear-gradient-54);}.cls-60{stroke:url(#linear-gradient-55);}.cls-61{stroke:url(#linear-gradient-56);}.cls-62{stroke:url(#linear-gradient-57);}.cls-63{stroke:url(#linear-gradient-58);}.cls-64{stroke:url(#linear-gradient-59);}.cls-65{stroke:url(#linear-gradient-60);}.cls-66{stroke:url(#linear-gradient-61);}.cls-67{stroke:url(#linear-gradient-62);}.cls-68{stroke:url(#linear-gradient-63);}.cls-69{stroke:url(#linear-gradient-64);}</style><linearGradient id="linear-gradient" x1="-0.49" y1="734.87" x2="1919.42" y2="734.87" gradientUnits="userSpaceOnUse"><stop offset="0" stop-color="#002bae"/><stop offset="1" stop-color="#092159"/></linearGradient><clipPath id="clip-path"><rect class="cls-1" x="1.1" y="2.76" width="1919.1" height="1079.69"/></clipPath><linearGradient id="linear-gradient-2" x1="860.97" y1="-88.51" x2="1062.61" y2="-88.51" gradientTransform="matrix(-0.18, 2.66, 4.24, 0.28, 1632.9, -1521.16)" gradientUnits="userSpaceOnUse"><stop offset="0.79" stop-color="#b40fe7"/><stop offset="1" stop-color="#1ba4e5" stop-opacity="0.5"/></linearGradient><linearGradient id="linear-gradient-3" x1="864.24" y1="-89" x2="1063.38" y2="-89" xlink:href="#linear-gradient-2"/><linearGradient id="linear-gradient-4" x1="867.49" y1="-89.5" x2="1064.15" y2="-89.5" xlink:href="#linear-gradient-2"/><linearGradient id="linear-gradient-5" x1="870.74" y1="-89.99" x2="1064.92" y2="-89.99" xlink:href="#linear-gradient-2"/><linearGradient id="linear-gradient-6" x1="873.96" y1="-90.49" x2="1065.69" y2="-90.49" xlink:href="#linear-gradient-2"/><linearGradient id="linear-gradient-7" x1="877.16" y1="-90.98" x2="1066.46" y2="-90.98" xlink:href="#linear-gradient-2"/><linearGradient id="linear-gradient-8" x1="880.34" y1="-91.48" x2="1067.23" y2="-91.48" xlink:href="#linear-gradient-2"/><linearGradient id="linear-gradient-9" x1="883.49" y1="-91.98" x2="1068" y2="-91.98" xlink:href="#linear-gradient-2"/><linearGradient id="linear-gradient-10" x1="886.61" y1="-92.47" x2="1068.77" y2="-92.47" xlink:href="#linear-gradient-2"/><linearGradient id="linear-gradient-11" x1="889.68" y1="-92.97" x2="1069.54" y2="-92.97" xlink:href="#linear-gradient-2"/><linearGradient id="linear-gradient-12" x1="892.7" y1="-93.47" x2="1070.31" y2="-93.47" xlink:href="#linear-gradient-2"/><linearGradient id="linear-gradient-13" x1="895.65" y1="-93.97" x2="1071.08" y2="-93.97" xlink:href="#linear-gradient-2"/><linearGradient id="linear-gradient-14" x1="898.48" y1="-94.47" x2="1071.85" y2="-94.47" xlink:href="#linear-gradient-2"/><linearGradient id="linear-gradient-15" x1="901.16" y1="-94.98" x2="1072.62" y2="-94.98" xlink:href="#linear-gradient-2"/><linearGradient id="linear-gradient-16" x1="903.54" y1="-95.49" x2="1073.39" y2="-95.49" xlink:href="#linear-gradient-2"/><linearGradient id="linear-gradient-17" x1="905.31" y1="-95.99" x2="1074.16" y2="-95.99" xlink:href="#linear-gradient-2"/><linearGradient id="linear-gradient-18" x1="902.12" y1="-96.48" x2="1074.93" y2="-96.48" xlink:href="#linear-gradient-2"/><linearGradient id="linear-gradient-19" x1="898.06" y1="-96.96" x2="1075.7" y2="-96.96" xlink:href="#linear-gradient-2"/><linearGradient id="linear-gradient-20" x1="894.01" y1="-97.44" x2="1076.47" y2="-97.44" xlink:href="#linear-gradient-2"/><linearGradient id="linear-gradient-21" x1="889.96" y1="-97.93" x2="1077.24" y2="-97.93" xlink:href="#linear-gradient-2"/><linearGradient id="linear-gradient-22" x1="885.9" y1="-98.43" x2="1078" y2="-98.43" xlink:href="#linear-gradient-2"/><linearGradient id="linear-gradient-23" x1="881.84" y1="-98.92" x2="1078.77" y2="-98.92" xlink:href="#linear-gradient-2"/><linearGradient id="linear-gradient-24" x1="877.79" y1="-99.41" x2="1079.55" y2="-99.41" xlink:href="#linear-gradient-2"/><linearGradient id="linear-gradient-25" x1="873.73" y1="-99.9" x2="1080.32" y2="-99.9" xlink:href="#linear-gradient-2"/><linearGradient id="linear-gradient-26" x1="869.67" y1="-100.4" x2="1081.09" y2="-100.4" xlink:href="#linear-gradient-2"/><linearGradient id="linear-gradient-27" x1="865.61" y1="-100.89" x2="1081.86" y2="-100.89" xlink:href="#linear-gradient-2"/><linearGradient id="linear-gradient-28" x1="861.55" y1="-101.39" x2="1082.63" y2="-101.39" xlink:href="#linear-gradient-2"/><linearGradient id="linear-gradient-29" x1="857.49" y1="-101.88" x2="1083.4" y2="-101.88" xlink:href="#linear-gradient-2"/><linearGradient id="linear-gradient-30" x1="853.43" y1="-102.37" x2="1084.17" y2="-102.37" xlink:href="#linear-gradient-2"/><linearGradient id="linear-gradient-31" x1="849.36" y1="-102.87" x2="1084.94" y2="-102.87" xlink:href="#linear-gradient-2"/><linearGradient id="linear-gradient-32" x1="845.3" y1="-103.36" x2="1085.71" y2="-103.36" xlink:href="#linear-gradient-2"/><linearGradient id="linear-gradient-33" x1="841.24" y1="-103.86" x2="1086.48" y2="-103.86" xlink:href="#linear-gradient-2"/><linearGradient id="linear-gradient-34" x1="841.69" y1="-101.61" x2="1086.57" y2="-101.61" xlink:href="#linear-gradient-2"/><linearGradient id="linear-gradient-35" x1="842.13" y1="-99.36" x2="1086.72" y2="-99.36" xlink:href="#linear-gradient-2"/><linearGradient id="linear-gradient-36" x1="842.58" y1="-97.11" x2="1086.86" y2="-97.11" xlink:href="#linear-gradient-2"/><linearGradient id="linear-gradient-37" x1="843.02" y1="-94.86" x2="1087.01" y2="-94.86" xlink:href="#linear-gradient-2"/><linearGradient id="linear-gradient-38" x1="843.47" y1="-92.61" x2="1087.16" y2="-92.61" xlink:href="#linear-gradient-2"/><linearGradient id="linear-gradient-39" x1="843.92" y1="-90.36" x2="1087.3" y2="-90.36" xlink:href="#linear-gradient-2"/><linearGradient id="linear-gradient-40" x1="844.36" y1="-88.11" x2="1087.45" y2="-88.11" xlink:href="#linear-gradient-2"/><linearGradient id="linear-gradient-41" x1="844.81" y1="-85.86" x2="1087.59" y2="-85.86" xlink:href="#linear-gradient-2"/><linearGradient id="linear-gradient-42" x1="845.25" y1="-83.61" x2="1087.74" y2="-83.61" xlink:href="#linear-gradient-2"/><linearGradient id="linear-gradient-43" x1="845.7" y1="-81.36" x2="1087.89" y2="-81.36" xlink:href="#linear-gradient-2"/><linearGradient id="linear-gradient-44" x1="846.15" y1="-79.1" x2="1088.03" y2="-79.1" xlink:href="#linear-gradient-2"/><linearGradient id="linear-gradient-45" x1="846.59" y1="-76.85" x2="1088.18" y2="-76.85" xlink:href="#linear-gradient-2"/><linearGradient id="linear-gradient-46" x1="847.04" y1="-74.6" x2="1088.32" y2="-74.6" xlink:href="#linear-gradient-2"/><linearGradient id="linear-gradient-47" x1="847.48" y1="-72.35" x2="1088.47" y2="-72.35" xlink:href="#linear-gradient-2"/><linearGradient id="linear-gradient-48" x1="847.93" y1="-70.1" x2="1088.62" y2="-70.1" xlink:href="#linear-gradient-2"/><linearGradient id="linear-gradient-49" x1="848.37" y1="-67.85" x2="1088.76" y2="-67.85" xlink:href="#linear-gradient-2"/><linearGradient id="linear-gradient-50" x1="848.82" y1="-65.6" x2="1088.91" y2="-65.6" xlink:href="#linear-gradient-2"/><linearGradient id="linear-gradient-51" x1="849.27" y1="-63.35" x2="1089.06" y2="-63.35" xlink:href="#linear-gradient-2"/><linearGradient id="linear-gradient-52" x1="849.71" y1="-61.1" x2="1089.2" y2="-61.1" xlink:href="#linear-gradient-2"/><linearGradient id="linear-gradient-53" x1="850.16" y1="-58.85" x2="1089.35" y2="-58.85" xlink:href="#linear-gradient-2"/><linearGradient id="linear-gradient-54" x1="850.6" y1="-56.6" x2="1089.49" y2="-56.6" xlink:href="#linear-gradient-2"/><linearGradient id="linear-gradient-55" x1="851.05" y1="-54.35" x2="1089.64" y2="-54.35" xlink:href="#linear-gradient-2"/><linearGradient id="linear-gradient-56" x1="851.5" y1="-52.1" x2="1089.79" y2="-52.1" xlink:href="#linear-gradient-2"/><linearGradient id="linear-gradient-57" x1="851.94" y1="-49.85" x2="1089.93" y2="-49.85" xlink:href="#linear-gradient-2"/><linearGradient id="linear-gradient-58" x1="848.31" y1="-47.59" x2="1090.08" y2="-47.59" xlink:href="#linear-gradient-2"/><linearGradient id="linear-gradient-59" x1="844.01" y1="-45.34" x2="1090.22" y2="-45.34" xlink:href="#linear-gradient-2"/><linearGradient id="linear-gradient-60" x1="839.71" y1="-43.09" x2="1090.37" y2="-43.09" xlink:href="#linear-gradient-2"/><linearGradient id="linear-gradient-61" x1="835.4" y1="-40.84" x2="1090.52" y2="-40.84" xlink:href="#linear-gradient-2"/><linearGradient id="linear-gradient-62" x1="831.09" y1="-38.59" x2="1090.66" y2="-38.59" xlink:href="#linear-gradient-2"/><linearGradient id="linear-gradient-63" x1="826.78" y1="-36.34" x2="1090.81" y2="-36.34" xlink:href="#linear-gradient-2"/><linearGradient id="linear-gradient-64" x1="822.47" y1="-34.09" x2="1090.95" y2="-34.09" xlink:href="#linear-gradient-2"/></defs><g class="cls-2"><g id="Isolation_Mode" data-name="Isolation Mode"><rect class="cls-3" x="1.1" y="1.54" width="1918.26" height="1078.62"/><path class="cls-4" d="M-.49,1081.06V747.21c580,168,1174.3-256.22,1467.64-330.65,200.1-50.77,359.57-22.21,452.27,7.05v657.45Z"/><g class="cls-5"><g class="cls-6"><path class="cls-7" d="M-138,1203.91s198.1-286.25,558.42-146.72c243.74,94.39,373.1,197.06,541.94,212.81,141.9,13.24,291.07-71.55,343.06-128,72.5-78.7,45.12-219.35,130-293.85,177.34-155.75,817.57-1.58,861.77,261.61"/><path class="cls-8" d="M-134.45,1206.21S62.4,923,419.46,1056.08c240.13,89.52,370,188.72,539,204.66a353.91,353.91,0,0,0,61.42.25c120.1-9.68,234.73-75.62,280.05-122,73.45-75.23,49-211.73,134.08-283.23,179.84-151.11,807.42-3.31,855.92,242.73"/><path class="cls-9" d="M-130.87,1208.5S64.71,928.31,418.54,1055c236.5,84.66,366.87,180.39,536,196.5a367.59,367.59,0,0,0,61,.55c119-8.67,232.69-71.55,278.89-116.15,74.36-71.78,52.9-204.11,138.2-272.61,182.42-146.47,797.26-5,850.07,223.83"/><path class="cls-10" d="M-127.28,1210.8S67,933.65,417.62,1053.86c232.84,79.82,363.75,172.05,533.06,188.35a384.2,384.2,0,0,0,60.57.84c117.79-7.65,230.61-67.47,277.72-110.25,75.23-68.32,56.84-196.48,142.33-262C1616.37,729,2218.4,864,2275.51,1075.75"/><path class="cls-11" d="M-123.69,1213.09S69.22,939,416.71,1052.75c229.15,75,360.62,163.71,530.09,180.19a400.29,400.29,0,0,0,60.14,1.14c116.64-6.63,228.52-63.39,276.56-104.35,76.07-64.87,60.83-188.83,146.45-251.37,187.81-137.19,776.94-8.53,838.35,186"/><path class="cls-12" d="M-120.11,1215.39s191.54-271,535.9-163.75c225.45,70.22,357.5,155.38,527.13,172a419.87,419.87,0,0,0,59.71,1.42c115.49-5.6,226.41-59.3,275.39-98.44,76.87-61.43,64.87-181.16,150.58-240.75,190.62-132.53,766.78-10.27,832.5,167.15"/><path class="cls-13" d="M-116.52,1217.68S73.6,949.81,414.87,1050.54C636.6,1116,769.25,1197.57,939,1214.41a442.38,442.38,0,0,0,59.29,1.72c114.33-4.58,224.26-55.22,274.22-92.55,77.63-58,68.93-173.45,154.71-230.12,193.5-127.85,756.62-12,826.64,148.25"/><path class="cls-14" d="M-112.93,1220S75.74,955.25,414,1049.43c218,60.69,351.26,138.7,521.21,155.72a462.62,462.62,0,0,0,58.86,2c113.19-3.34,222.1-51.14,273.06-86.65,78.34-54.57,73-165.73,158.83-219.5,196.48-123.14,746.46-13.75,820.79,129.36"/><path class="cls-15" d="M-109.35,1222.27S77.84,960.72,413,1048.32c214.21,56,348.15,130.36,518.26,147.56a489.56,489.56,0,0,0,58.42,2.31c112-2.29,219.91-47.08,271.9-80.75,79-51.17,77.18-158,163-208.89,199.52-118.38,736.31-15.48,814.94,110.47"/><path class="cls-16" d="M-105.76,1224.57S79.91,966.22,412.11,1047.21c210.42,51.29,345,122,515.3,139.41a521.26,521.26,0,0,0,58,2.59c110.87-1.24,217.68-43,270.73-74.84,79.65-47.8,81.35-150.21,167.08-198.27,202.64-113.59,726.14-17.22,809.08,91.58"/><path class="cls-17" d="M-102.17,1226.86S82,971.77,411.2,1046.1c206.6,46.64,341.9,113.69,512.33,131.25a531.88,531.88,0,0,0,57.57,2.89c109.72-.8,215.45-39,269.56-68.94,80.25-44.45,85.57-142.41,171.21-187.65,205.83-108.75,716-18.95,803.22,72.68"/><path class="cls-18" d="M-98.58,1229.16S84,977.35,410.28,1045c202.76,42,338.78,105.35,509.37,123.1,19.15,2,38.28,3,57.14,3.18,108.56.83,213.19-35,268.4-63,80.82-41.13,89.82-134.55,175.33-177,209.1-103.84,705.83-20.69,797.37,53.79"/><path class="cls-19" d="M-95,1231.46S85.91,983,409.36,1043.88c198.91,37.45,335.66,97,506.41,114.94,19,2,38,3.15,56.71,3.47,107.41,1.87,210.91-30.93,267.24-57.14,81.35-37.84,94.09-126.68,179.46-166.4,212.43-98.86,695.66-22.43,791.51,34.89"/><path class="cls-20" d="M-91.41,1233.75s179.26-245.07,499.85-191c195,32.91,332.54,88.68,503.45,106.79,18.9,2,37.74,3.26,56.29,3.76,106.25,2.9,208.6-27,266.07-51.24,81.85-34.6,98.39-118.76,183.58-155.78,215.82-93.81,685.51-24.17,785.66,16"/><path class="cls-21" d="M-87.82,1236.05S89.75,994.43,407.52,1041.66C598.66,1070.07,736.94,1122,908,1140.29c18.77,2,37.47,3.37,55.86,4.06,105.09,3.93,206.29-23,264.91-45.34,82.33-31.39,102.72-110.8,187.7-145.17,219.28-88.65,675.35-25.9,779.81-2.89"/><path class="cls-22" d="M-84.24,1238.34s175.87-238.1,490.84-197.79c187.23,24,326.31,72,497.53,90.48,18.64,2,37.19,3.48,55.43,4.35,103.94,4.95,204-19.06,263.75-39.44,82.78-28.23,107.06-102.81,191.83-134.55,222.78-83.41,665.18-27.64,774-21.78"/><path class="cls-23" d="M-80.65,1240.64s174.13-234.51,486.34-201.2C589,1059,728.87,1103.12,900.25,1121.76c18.51,2,36.92,3.59,55,4.64,102.77,6,201.61-15.15,262.57-33.54,83.24-25.1,111.44-94.76,196-123.92,226.33-78.07,655-29.38,768.1-40.68"/><path class="cls-24" d="M-77.06,1242.93S95.31,1012.1,404.77,1038.34c179.35,15.2,320.06,55.33,491.6,74.16,18.39,2,36.65,3.7,54.58,4.93,101.62,7,199.27-11.28,261.41-27.64,83.67-22,115.82-86.68,200.08-113.3,229.92-72.62,644.87-31.12,762.24-59.57"/><path class="cls-25" d="M-73.48,1245.23s170.6-227.08,477.33-208c175.4,10.91,316.94,47,488.64,66,18.26,2,36.37,3.81,54.15,5.23,100.46,8,196.91-7.45,260.25-21.74,84.09-19,120.21-78.57,204.21-102.68,233.53-67,634.71-32.86,756.38-78.47"/><path class="cls-26" d="M-69.89,1247.52s168.81-223.23,472.82-211.4c171.45,6.67,313.82,38.66,485.69,57.85,18.12,2,36.09,3.91,53.72,5.52,99.3,9,194.55-3.65,259.08-15.84,84.52-16,124.61-70.4,208.33-92.06,237.18-61.36,624.55-34.6,750.53-97.36"/><path class="cls-27" d="M-66.3,1249.82S101.64,1011,402,1035c167,13.37,310.7,30.32,482.73,49.69,18,2,35.82,4,53.29,5.81,98.15,10,192.2.13,257.92-9.93,85-13,129-62.2,212.45-81.44,240.84-55.54,614.39-36.34,744.68-116.26"/><path class="cls-28" d="M-62.72,1252.11s165.65-234.38,463.81-218.21c163.3,8.85,307.59,22,479.77,41.53,17.87,2,35.55,4.14,52.86,6.11,97,11,189.85,3.87,256.75-4,85.39-10.08,133.42-54,216.59-70.82,244.5-49.58,604.23-38.06,738.82-135.14"/><path class="cls-29" d="M-59.13,1254.41s163.45-211,459.31-221.62c159.57-5.71,304.46,13.65,476.8,33.38,17.74,2,35.27,4.24,52.44,6.4,95.83,12,187.51,7.57,255.58,1.86,85.84-7.2,137.82-45.67,220.71-60.2,248.16-43.49,594.07-39.8,733-154"/><path class="cls-30" d="M-55.54,1256.7s161.69-206.73,454.8-225C554.89,1022,700.6,1037,873.1,1056.9c17.61,2,35,4.35,52,6.7,94.68,13.05,185.18,11.25,254.42,7.76,86.31-4.34,142.21-37.35,224.83-49.58,251.81-37.26,583.92-41.54,727.11-172.93"/><path class="cls-31" d="M-52,1259s160-202.31,450.3-228.43c151.71-13.65,298.22-3,470.88,17.07,17.48,2,34.73,4.45,51.58,7,93.53,14.05,183.06,19.06,253.26,13.67,86.55-6.64,146.59-29,229-39,255.43-30.9,573.75-43.28,721.25-191.83"/><path class="cls-32" d="M-48.37,1261.29s158.28-197.73,445.79-231.83c147.81-17.53,295.1-11.36,467.92,8.91,17.36,2,34.46,4.56,51.15,7.28,92.38,15,180.61,22.21,252.1,19.57,87.24-3.23,151-20.61,233.08-28.34,259-24.39,563.59-45,715.4-210.72"/><path class="cls-33" d="M-44.78,1263.59s156.65-193,441.28-235.24c143.94-21.34,292-19.69,465,.76,17.23,2,34.18,4.66,50.73,7.57,91.22,16,178.27,22.11,250.92,25.46,87.83,4.06,155.31-12.18,237.21-17.71,262.58-17.75,553.44-46.76,709.55-229.62"/><path class="cls-34" d="M-41.2,1265.89s155.11-188.17,436.78-238.64c140.1-25.11,288.87-28,462-7.41,17.1,2,33.92,4.74,50.3,7.86,90.11,16.86,176,25.69,249.76,31.37,88.38,6.81,159.64-3.73,241.33-7.1,266.08-11,543.28-48.49,703.7-248.5"/><path class="cls-35" d="M-37.61,1268.18S116,1085,394.67,1026.14c136.3-28.81,285.74-36.37,459-15.56,17,2,33.65,4.84,49.87,8.15,89,17.87,173.76,29.24,248.6,37.27,89,9.55,163.95,1.91,245.46,3.52,269.5,5.34,533.12-50.23,697.84-267.4"/><path class="cls-36" d="M-34,1270.48s152.28-178,427.77-245.45c132.57-32.46,282.62-44.71,456.07-23.72,16.84,2,33.37,5,49.45,8.45,87.79,18.89,171.53,32.77,247.43,43.17,89.56,12.27,168.27,11.32,249.58,14.14,272.75,9.48,523-52,692-286.29"/><path class="cls-37" d="M-30.44,1272.77s151.05-172.69,423.27-248.85c128.89-36.06,279.5-53,453.12-31.87a468.88,468.88,0,0,1,49,8.74c86.64,19.91,169.32,36.29,246.27,49.07,90.19,15,172.48,21.78,253.7,24.76,276.21,10.13,512.8-53.71,686.13-305.18"/><path class="cls-38" d="M-26.85,1275.07S295.42,915.61,842.07,982.78a420,420,0,0,1,48.58,9c528.29,129.37,909.76,179.82,1183.21-233.72"/><path class="cls-39" d="M-17.39,1276.08c.2-2.16,47.9-55.88,136.2-118.72,79-56.25,189.84-119.83,331.12-158.31,102.48-27.82,221.41-42.55,354.55-31.65q20.29,1.67,41,4.14a426.74,426.74,0,0,1,48.81,8.86c128.17,30.75,247.54,58.35,358.59,76.25,53.58,8.61,105.3,15,155.36,18.45,169.36,11.14,319.48-10.9,452.1-92.2,82.07-50.31,156.17-123.25,223-223"/><path class="cls-40" d="M-7.94,1277.1c.41-4.32,47.48-57.92,133.13-121.4,78.11-57.89,186.8-124,327.38-164.56,101.82-29.21,221.2-45.22,355.14-34.85q20.4,1.59,41.16,4a434.85,434.85,0,0,1,49,8.7c128.75,30.25,248.46,58.81,359.55,78,53.52,9.2,105.21,16.42,155.41,20.45,168.34,13.51,319.37-6.1,453.88-85.12,84-49.36,159.09-122,226.13-220.59"/><path class="cls-41" d="M1.52,1278.11c.61-6.48,47-60,130-124.06,77.2-59.57,183.76-128.18,323.64-170.82,101.16-30.6,221-47.9,355.73-38.05q20.5,1.5,41.33,3.86a441.26,441.26,0,0,1,49.25,8.54c129.33,29.75,249.37,59.27,360.51,79.75,53.47,9.79,105.12,17.77,155.45,22.46,167.34,15.56,319.28-1.28,455.68-78,86-48.41,162-120.73,229.22-218.19"/><path class="cls-42" d="M11,1279.13c.81-8.65,46.58-62.15,127-126.73,76.29-61.29,180.73-132.36,319.89-177.08,100.51-32,220.79-50.57,356.33-41.25q20.6,1.42,41.51,3.73a448,448,0,0,1,49.46,8.37c129.92,29.25,250.29,59.73,361.46,81.5,53.43,10.37,105,19.12,155.51,24.46,166.33,17.6,319.21,3.57,457.46-71,88-47.44,164.94-119.46,232.32-215.79"/><path class="cls-43" d="M20.43,1280.14c1-10.8,46.11-64.34,123.9-129.4,75.39-63,177.69-136.53,316.15-183.33C560.33,934,681.05,914.16,817.4,923q20.7,1.35,41.68,3.59a456.83,456.83,0,0,1,49.69,8.21C1039.26,963.51,1160,995,1271.18,1018c53.38,11,105,20.47,155.55,26.47,165.32,19.62,319.17,8.44,459.25-63.87,90-46.47,167.86-118.2,235.41-213.4"/><path class="cls-44" d="M29.89,1281.16c1.22-13,45.6-66.6,120.82-132.07,74.48-64.83,174.65-140.71,312.41-189.59,99.19-34.78,220.36-55.92,357.52-47.65q20.79,1.26,41.84,3.45a466.13,466.13,0,0,1,49.91,8.05c131.07,28.25,252.11,60.66,363.37,85,53.33,11.56,104.87,21.8,155.6,28.48,164.3,21.61,319.14,13.32,461-56.8,92-45.48,170.78-116.94,238.5-211"/><path class="cls-45" d="M39.34,1282.17c1.43-15.12,45.09-68.9,117.75-134.74,73.56-66.66,171.51-145.16,308.66-195.84,98.46-36.38,220.16-58.6,358.12-50.85q20.89,1.18,42,3.32A470.54,470.54,0,0,1,916,911.94c131.65,27.75,253,61.12,364.32,86.74,53.29,12.15,104.79,23.13,155.65,30.48,163.3,23.6,319.13,18.23,462.83-49.71,94.06-44.48,173.71-115.68,241.6-208.61"/><path class="cls-46" d="M48.8,1283.19c1.63-17.29,44.54-71.26,114.67-137.41,72.64-68.53,168.46-149.37,304.92-202.1,97.79-37.79,220-61.27,358.71-54q21,1.1,42.18,3.18a479.78,479.78,0,0,1,50.35,7.72c132.23,27.25,253.95,61.58,365.28,88.49,53.24,12.73,104.69,24.45,155.7,32.48,162.28,25.56,319.13,23.17,464.61-42.63,96.1-43.46,176.63-114.41,244.69-206.2"/><path class="cls-47" d="M58.26,1284.2c1.83-19.44,44-73.66,111.58-140.07C241.56,1073.68,335.26,990.56,471,935.77c97.12-39.19,219.74-63.95,359.3-57.26q21.09,1,42.36,3a493.23,493.23,0,0,1,50.57,7.55c132.8,26.76,254.86,62,366.23,90.25,53.19,13.32,104.6,25.77,155.74,34.49,161.27,27.49,319.16,28.12,466.41-35.56,98.14-42.43,179.55-113.15,247.78-203.8"/><path class="cls-48" d="M67.71,1285.22c2-21.61,43.38-76.11,108.51-142.75C247,1070.08,338.59,984.71,473.66,927.86c96.46-40.6,219.54-66.62,359.9-60.46q21.2,1,42.53,2.92a500.68,500.68,0,0,1,50.79,7.38c133.38,26.26,255.77,62.51,367.18,92,53.15,13.91,104.52,27.08,155.8,36.49,160.25,29.41,319.19,33.09,468.19-28.47,100.2-41.4,182.48-111.89,250.88-201.41"/><path class="cls-49" d="M77.17,1286.23c2.24-23.77,42.74-78.61,105.43-145.41C252.4,1066.44,341.92,978.87,476.3,920c95.79-42,219.33-69.29,360.49-63.66q21.3.87,42.7,2.78a507.85,507.85,0,0,1,51,7.22c134,25.76,256.69,63,368.14,93.74,53.1,14.5,104.43,28.4,155.84,38.5,159.24,31.31,319.23,38.09,470-21.39,102.27-40.34,185.4-110.62,254-199"/><path class="cls-50" d="M86.63,1287.25c2.44-25.93,42.08-81.15,102.35-148.09,68.8-76.41,156.27-166.13,290-227.12,95.12-43.4,219.12-72,361.08-66.86q21.4.8,42.87,2.64c17.41,1.49,34.52,3.93,51.23,7.06,134.55,25.26,257.61,63.43,369.1,95.49,53,15.09,104.34,29.7,155.89,40.51,158.22,33.18,319.28,43.1,471.77-14.31C2035.21,937.29,2119.2,867.21,2187.94,780"/><path class="cls-51" d="M96.08,1288.26c2.65-28.09,41.39-83.73,99.28-150.75C263.14,1059,348.58,967.19,481.57,904.13c94.46-44.8,218.92-74.64,361.68-70.06q21.51.7,43,2.51c17.48,1.44,34.65,3.82,51.45,6.89,135.12,24.76,258.51,63.89,370,97.24,53,15.68,104.26,31,155.94,42.51,157.22,35,319.35,48.14,473.56-7.23,106.41-38.2,191.25-108.1,260.16-194.21"/><path class="cls-52" d="M105.54,1289.28c2.85-30.25,40.66-86.35,96.2-153.42,66.72-80.59,150.17-174.5,282.47-239.64C578,850,702.92,818.9,846.48,823q21.6.63,43.22,2.37c17.55,1.4,34.8,3.72,51.67,6.73,135.7,24.26,259.43,64.35,371,99,53,16.26,104.17,32.28,156,44.51,156.21,36.89,319.41,53.2,475.34-.14C2052.19,938.31,2137.87,868.58,2207,783.6"/><path class="cls-53" d="M115,1290.29c3.06-32.41,39.9-89,93.13-156.09,65.63-82.73,147.13-178.67,278.73-245.9,93.13-47.57,218.5-80,362.87-76.45q21.69.55,43.38,2.23c17.62,1.35,34.94,3.62,51.89,6.57,136.28,23.76,260.35,64.81,372,100.74,52.91,16.85,104.09,33.56,156,46.52,155.21,38.7,319.49,58.27,477.14,6.93,110.56-36,197.09-105.57,266.34-189.42"/><path class="cls-54" d="M124.45,1291.31c3.26-34.57,39.09-91.69,90-158.76,64.5-84.91,144.1-182.85,275-252.16,92.47-49,218.3-82.66,363.47-79.65q21.79.46,43.55,2.09c17.69,1.31,35.08,3.52,52.11,6.41,136.86,23.26,261.26,65.28,372.91,102.49,52.87,17.44,104,34.84,156.09,48.52,154.21,40.51,319.57,63.37,478.92,14,112.65-34.89,200-104.32,269.44-187"/><path class="cls-55" d="M133.91,1292.32c3.46-36.73,38.25-94.4,87-161.43,63.32-87.13,141.06-187,271.25-258.41,91.81-50.35,218.09-85.33,364.06-82.85q21.9.39,43.72,2c17.76,1.26,35.23,3.41,52.34,6.24,137.43,22.76,262.17,65.74,373.86,104.24,52.82,18,103.93,36.11,156.13,50.53,153.22,42.3,319.66,68.47,480.72,21.09,114.74-33.75,202.93-103.05,272.52-184.63"/><path class="cls-56" d="M143.36,1293.34c3.68-38.9,37.38-97.14,83.89-164.1,62.09-89.38,138-191.18,267.51-264.67,91.15-51.73,217.88-88,364.65-86.05q22,.3,43.9,1.82c17.82,1.22,35.36,3.31,52.55,6.07,138,22.27,263.09,66.21,374.82,106,52.77,18.62,103.84,37.39,156.18,52.54,152.23,44.07,319.74,73.6,482.5,28.18,116.83-32.61,205.86-101.79,275.62-182.23"/><path class="cls-57" d="M152.82,1294.35c3.88-41,36.46-99.9,80.81-166.77,60.8-91.66,135-195.33,263.76-270.92,90.5-53.11,217.68-90.68,365.25-89.25q22.1.23,44.07,1.68c17.89,1.17,35.5,3.21,52.77,5.91,138.59,21.77,264,66.67,375.77,107.74C1388,902,1439,921.39,1491.48,937.28c151.25,45.83,319.83,78.75,484.29,35.26C2094.7,941.09,2184.56,872,2254.49,792.71"/><path class="cls-58" d="M162.28,1295.37c4.08-43.22,35.5-102.69,77.73-169.44,59.45-94,132-199.5,260-277.18,89.84-54.49,217.47-93.36,365.84-92.45q22.2.15,44.24,1.55c18,1.12,35.65,3.1,53,5.74,139.18,21.27,264.92,67.13,376.73,109.49,52.68,19.79,103.69,39.9,156.28,56.55C1646.38,977.2,1816,1013.54,1982.19,972c121-30.28,211.7-99.27,281.8-177.44"/><path class="cls-59" d="M171.73,1296.38c4.29-45.37,34.52-105.48,74.66-172.1,58-96.34,128.92-203.66,256.28-283.44,89.18-55.87,217.26-96,366.43-95.65q22.3.06,44.41,1.41c18,1.08,35.79,3,53.22,5.58,139.75,20.77,265.83,67.59,377.68,111.24C1397,883.8,1448,904.57,1500.74,922c149.3,49.29,320,89.09,487.86,49.42,123.12-29.09,214.63-98,284.9-175"/><path class="cls-60" d="M181.19,1297.4c4.49-47.54,33.48-108.29,71.58-174.78,56.56-98.71,125.89-207.8,252.53-289.69,88.54-57.25,217.06-98.71,367-98.86q22.41,0,44.59,1.28c18.1,1,35.92,2.9,53.43,5.42,140.33,20.27,266.75,68.05,378.63,113,52.59,21,103.56,42.39,156.38,60.55,148.34,51,320.1,94.28,489.65,56.51,125.21-27.9,217.56-96.74,288-172.65"/><path class="cls-61" d="M190.65,1298.41c4.69-49.69,32.41-111.11,68.49-177.44,55-101.11,122.87-212,248.8-296C595.82,766.4,724.79,723.64,875.56,723q22.52-.08,44.76,1.15c18.17,1,36.07,2.79,53.65,5.25,140.91,19.77,267.66,68.51,379.59,114.74,52.54,21.55,103.49,43.63,156.43,62.56,147.39,52.7,320.18,99.48,491.44,63.58,127.3-26.69,220.47-95.48,291.08-170.24"/><path class="cls-62" d="M200.1,1299.43c4.9-51.86,31.3-113.93,65.42-180.12,53.37-103.52,119.85-216.1,245.06-302.2,87.23-60,216.64-104.06,368.21-105.26q22.62-.17,44.93,1c18.24.94,36.21,2.69,53.87,5.09,141.49,19.27,268.58,69,380.55,116.48,52.49,22.15,103.42,44.87,156.47,64.57,146.45,54.39,320.28,104.71,493.23,70.67,129.4-25.48,223.4-94.22,294.18-167.85"/><path class="cls-63" d="M209.56,1300.44c5.1-54,30.15-116.75,62.34-182.78,51.66-106,117-220,241.31-308.46C599.91,748,729.65,702.47,882,700.74q22.69-.24,45.09.87c18.31.9,36.35,2.59,54.1,4.93,142.06,18.77,269.49,69.43,381.49,118.23,52.45,22.74,103.37,46.09,156.53,66.57,145.5,56.06,320.36,109.94,495,77.75,131.5-24.24,226.32-93,297.27-165.45"/><path class="cls-64" d="M219,1301.46c5.31-56.18,29-119.58,59.27-185.45,49.86-108.42,114-224.21,237.57-314.72,86-62.6,216.23-109.41,369.41-111.66q22.8-.33,45.26.74c18.38.85,36.5,2.48,54.32,4.76,142.64,18.27,270.41,69.89,382.45,120,52.4,23.33,103.31,47.31,156.57,68.58,144.58,57.72,320.45,115.18,496.81,84.82,133.59-23,229.24-91.69,300.36-163"/><path class="cls-65" d="M228.47,1302.47c5.51-58.34,27.75-122.39,56.19-188.12,48-110.88,110.91-228.37,233.83-321,85.38-64,216-112.08,370-114.86q22.9-.4,45.44.6c18.44.81,36.63,2.38,54.53,4.59,143.23,17.78,271.32,70.37,383.41,121.74,52.35,23.91,103.25,48.53,156.62,70.58,143.66,59.37,320.53,120.44,498.59,91.91,135.68-21.74,232.17-90.43,303.46-160.66"/><path class="cls-66" d="M237.93,1303.49c5.71-60.5,26.49-125.2,53.11-190.79,46-113.36,107.88-232.55,230.08-327.23,84.73-65.38,215.81-114.76,370.6-118.06q23-.48,45.61.46c18.52.76,36.77,2.28,54.76,4.43,143.8,17.28,272.23,70.83,384.35,123.49,52.31,24.5,103.21,49.74,156.67,72.58,142.76,61,320.61,125.72,500.38,99,137.78-20.48,235.09-89.16,306.55-158.25"/><path class="cls-67" d="M247.38,1304.51c5.92-62.67,25.21-128,50-193.47,43.92-115.83,104.84-236.72,226.34-333.49C607.83,710.79,739.36,660.13,895,656.3q23.12-.57,45.78.33c18.59.71,36.92,2.17,55,4.26,144.38,16.78,273.15,71.29,385.31,125.24,52.26,25.09,103.16,50.94,156.72,74.59,141.85,62.63,320.68,131,502.17,106.07,139.86-19.21,238-87.9,309.64-155.86"/><path class="cls-68" d="M256.84,1305.52c6.12-64.82,23.88-130.76,47-196.13,41.77-118.3,101.81-240.9,222.61-339.75,83.41-68.16,215.39-120.1,371.78-124.45q23.21-.65,46,.19,28,1,55.2,4.1c145,16.28,274.06,71.75,386.27,127,52.21,25.68,103.15,52.07,156.76,76.6,141.07,64,320.79,136.51,504,113.15,142-17.74,240.94-86.64,312.74-153.46"/><path class="cls-69" d="M266.3,1306.54c6.32-67,22.52-133.52,43.87-198.8C349.68,987,409,862.66,529,761.73,611.79,692.18,744.22,639,901.41,634.08c187.46-5.83,351.05,63.37,488.76,132.72,52.17,26.27,103.09,53.35,156.82,78.6,140.09,65.86,320.82,141.59,505.74,120.24,144-16.63,243.86-85.38,315.83-151.07"/></g></g></g></g></svg>